<?xml version="1.0" encoding="utf-8"?>
<!-- Generator: Adobe Illustrator 15.0.0, SVG Export Plug-In  -->
<!DOCTYPE svg PUBLIC "-//W3C//DTD SVG 1.1//EN" "http://www.w3.org/Graphics/SVG/1.1/DTD/svg11.dtd" [
	<!ENTITY ns_flows "http://ns.adobe.com/Flows/1.0/">
]>
<svg version="1.1"
	 xmlns="http://www.w3.org/2000/svg" xmlns:xlink="http://www.w3.org/1999/xlink" xmlns:a="http://ns.adobe.com/AdobeSVGViewerExtensions/3.0/"
	 x="0px" y="0px" width="504px" height="252px" viewBox="-72 -23.758 504 252"
	 overflow="visible" enable-background="new -72 -23.758 504 252" xml:space="preserve">
<defs>
</defs>
<path d="M257.354,13.994c-7.412-6.17-18.823-10.301-34.202-12.408L211.85,37.52c-0.244,1.32-0.664,2.816-1.314,4.541
	c-1.154,2.883-2.543,5.26-4.175,7.129c-1.635,1.873-3.464,3.334-5.49,4.398c-2.027,1.061-4.231,1.791-6.614,2.193
	c-2.383,0.4-4.847,0.527-7.393,0.379c-2.549-0.148-4.716-0.496-6.501-1.043c-1.785-0.545-3.428-1.451-4.925-2.719
	c-1.108-1.246-1.752-2.877-1.928-4.902c-0.176-2.025,0.314-4.527,1.471-7.51c1.035-2.59,2.346-4.85,3.934-6.771
	c1.587-1.92,3.443-3.41,5.566-4.465c2.027-1.061,4.207-1.768,6.539-2.127c2.326-0.354,4.914-0.447,7.754-0.281
	c2.353,0.137,4.543,0.484,6.575,1.047c0.964,0.266,1.809,0.613,2.542,1.033l8.677-27.592c-2.141-0.201-4.333-0.379-6.609-0.508
	c-21.902-1.279-40.309,1.25-55.228,7.576c-14.919,6.33-24.866,15.715-29.834,28.154c-1.491,3.812-2.293,7.406-2.41,10.783
	l-0.01-0.004c-1.426,24.463,14.295,38.244,24.007,44.373c3.897,2.609,7.363,3.902,7.363,3.902l4.451-14.227l1.316-3.496
	c5.859,1.109,12.375,1.881,19.573,2.299c22.053,1.285,40.538-1.232,55.458-7.564c14.916-6.326,24.78-15.637,29.591-27.941
	C269.043,31.881,266.75,21.818,257.354,13.994z"/>
<path d="M269.53,139.498c-2.51,7.719-8.23,13.805-17.156,18.268c-8.926,4.463-20.222,6.695-33.891,6.695
	c-13.482,0-23.291-2.207-29.429-6.625c-6.136-4.416-7.903-10.529-5.298-18.338l7.529-23.291h25.664l-7.253,23.15
	c-0.931,2.883-1.233,5.279-0.906,7.184c0.325,1.906,1.045,3.416,2.161,4.533c1.394,1.113,2.951,1.881,4.673,2.299
	c1.719,0.418,3.787,0.629,6.206,0.629c2.418,0,4.742-0.256,6.974-0.77c2.231-0.508,4.276-1.322,6.138-2.438
	c1.857-1.117,3.509-2.602,4.951-4.463c1.44-1.859,2.626-4.186,3.556-6.975l7.532-23.15h25.662L269.53,139.498z"/>
<path d="M86.874,140.402c2.511-7.717,0.743-13.807-5.3-18.27c-6.045-4.463-15.899-6.693-29.567-6.693
	c-13.484,0-24.686,2.209-33.611,6.623C9.467,126.48,3.701,132.594,1.1,140.402c-2.511,7.721-0.722,13.787,5.368,18.201
	c6.09,4.418,15.922,6.627,29.499,6.627c13.575,0,24.825-2.209,33.753-6.627C78.646,154.189,84.363,148.123,86.874,140.402z
	 M60.792,140.543c-0.93,2.977-2.069,5.299-3.417,6.973c-1.349,1.674-3.047,3.117-5.09,4.324c-1.768,1.117-3.766,1.883-5.997,2.301
	c-2.231,0.42-4.463,0.627-6.696,0.627c-2.696,0-4.999-0.23-6.903-0.695c-1.907-0.465-3.417-1.256-4.534-2.371
	c-1.209-1.115-1.906-2.627-2.091-4.533c-0.188-1.904,0.139-4.115,0.977-6.625c0.929-2.881,2.161-5.275,3.696-7.184
	c1.533-1.904,3.229-3.416,5.09-4.531c2.138-1.115,4.206-1.885,6.206-2.303c2-0.418,4.207-0.627,6.626-0.627
	c2.416,0,4.602,0.258,6.554,0.768c1.953,0.512,3.486,1.324,4.603,2.439c1.115,1.117,1.789,2.605,2.021,4.463
	C62.069,135.43,61.721,137.754,60.792,140.543z"/>
<path d="M310.138,126.807c2.929-0.699,9.042-1.047,18.34-1.047c4.834,0,9.509,0.488,14.019,1.465
	c4.509,0.975,9.042,2.209,13.597,3.695L360,119.064c-2.697-0.744-6.625-1.486-11.786-2.23c-5.159-0.744-10.669-1.117-16.526-1.117
	c-17.575,0-30.405,1.512-38.494,4.533s-12.878,6.811-14.366,11.367c-1.115,3.441-0.348,6.346,2.301,8.717
	c2.651,2.371,7.323,4.115,14.017,5.23c2.511,0.467,6.623,0.836,12.343,1.115c5.718,0.279,9.46,0.557,11.228,0.836
	c3.716,0.375,6.206,0.838,7.461,1.396c1.255,0.559,1.696,1.393,1.325,2.51c-0.466,1.303-1.976,2.279-4.533,2.928
	c-2.559,0.652-6.3,0.977-11.226,0.977c-0.771,0-1.513-0.004-2.241-0.006c-1.847-0.102-3.858-0.271-5.791-0.477
	c-2.061-0.219-4.119-0.484-6.162-0.793c-4.089-0.623-8.132-1.422-12.058-2.439c-3.921-1.023-7.734-2.268-11.26-3.814
	c-0.476-0.209-0.933-0.434-1.395-0.654c-2.475,3.979-5.905,7.451-10.269,10.396c2.259,1.084,4.539,1.975,6.807,2.742
	c4.519,1.506,9.033,2.52,13.525,3.266c4.493,0.74,8.97,1.203,13.431,1.471c2.231,0.133,4.46,0.217,6.691,0.248
	c1.967,0.027,3.882,0.02,5.901-0.043c12.216-0.074,22.317-1.531,30.295-4.387c8.179-2.93,13.062-6.811,14.643-11.646
	c1.117-3.348,0.441-6.137-2.021-8.369c-2.465-2.23-6.812-3.855-13.041-4.881c-2.882-0.371-5.767-0.719-8.646-1.047
	c-2.885-0.322-5.534-0.625-7.952-0.906c-9.577-0.648-14.924-1.252-16.04-1.811s-1.489-1.395-1.116-2.512
	C305.513,128.457,307.21,127.5,310.138,126.807z"/>
<path d="M172.837,122.203c-6.091-4.416-15.923-6.627-29.498-6.627c-13.577,0-24.825,2.211-33.752,6.627
	c-8.926,4.416-14.4,10.414-16.911,18.131l-0.105,0.348L79.88,179.873c-5.261,17.631,17.526,24.611,17.526,24.611l7.58-24.611
	l0.656-2.107c0.591-1.982,1.192-3.963,1.78-5.947l1.687-5.531c0.603-1.832,1.206-3.662,1.85-5.482l3.979-10.873l1.993-5.438
	l1.428-3.717c0.051-0.172,0.099-0.338,0.156-0.514c0.835-2.51,1.952-4.719,3.346-6.623c1.395-1.904,3.068-3.418,5.021-4.535
	c1.858-1.115,3.882-1.904,6.067-2.371c2.183-0.463,4.625-0.695,7.322-0.695c2.231,0,4.325,0.209,6.277,0.627
	s3.438,1.186,4.463,2.299c1.301,1.211,2.068,2.652,2.301,4.326c0.231,1.674-0.117,3.998-1.046,6.973
	c-0.93,2.789-2.116,5.115-3.556,6.973c-1.443,1.863-3.092,3.35-4.951,4.465c-1.86,1.115-3.905,1.93-6.136,2.439
	c-2.231,0.512-4.557,0.768-6.974,0.768c-2.419,0-4.487-0.209-6.207-0.627c-1.722-0.42-3.325-1.186-4.812-2.303
	c-0.112-0.113-0.201-0.248-0.305-0.365l-3.674,10.658c-0.206,0.613-0.403,1.227-0.602,1.842c3.479,0.707,7.508,1.129,12.112,1.256
	c13.667,0,24.964-2.232,33.892-6.695c8.926-4.465,14.643-10.551,17.154-18.271C180.718,132.686,178.925,126.619,172.837,122.203z"/>
</svg>
